<?xml version="1.0" standalone="no"?>
<!DOCTYPE svg PUBLIC "-//W3C//DTD SVG 20010904//EN"
 "http://www.w3.org/TR/2001/REC-SVG-20010904/DTD/svg10.dtd">
<svg version="1.0" xmlns="http://www.w3.org/2000/svg"
 width="2500.000000pt" height="2500.000000pt" viewBox="0 0 2500.000000 2500.000000"
 preserveAspectRatio="xMidYMid meet">
<metadata>
Created by thrifted
</metadata>
<g transform="translate(0.000000,2500.000000) scale(0.100000,-0.100000)"
fill="#000000" stroke="none">
<path class="st0" d="M1359.1,873.1c0,0-37.5,4.5-60,55.5s0,72-43.5,90c-43.5,18-165-25.5-147-79.5c18-54,49.5-180,249-222
	c199.5-42,345,106.5,366,241.5s-70.5,264-118.5,321c-48,57-87,135-202.5,84c-115.5-51-21-175.5,48-201c69-25.5,97.5-34.5,115.5-60
	c18-25.5,45-106.5-12-172.5C1497.1,864.1,1429.6,859.6,1359.1,873.1z"/>
<path class="st0" d="M1528.6,1545.1c0,0-49.5-93-106.5-82.5c-57,10.5-91.5,4.5-108,91.5c-88.5,54-996,672-996,672
	s-181.5,168,63,373.5c375,3,2026.4,0,2026.4,0s258-141,151.5-312C2331,2076.1,1524.1,1569.1,1528.6,1545.1z"/>
<path class="st0" d="M1411.6,1695.1c0,0-40.5,3-91.5,37.5s-816,540-895.5,597s7.5,135,7.5,135l1936.4,3c0,0,73.5-39,19.5-126
	c-93-69-940.5-643.5-940.5-643.5L1411.6,1695.1z"/>
</g>
</svg>
